0
SECTION
2
HEADER
9
$INSUNITS
70
4
9
$ACADVER
1
AC1014
9
$HANDSEED
5
FFFF
0
ENDSEC
0
SECTION
2
TABLES
0
TABLE
2
VPORT
5
8
100
AcDbSymbolTable
0
ENDTAB
0
TABLE
2
LTYPE
5
5
100
AcDbSymbolTable
0
LTYPE
5
14
100
AcDbSymbolTableRecord
100
AcDbLinetypeTableRecord
2
BYBLOCK
70
0
0
LTYPE
5
15
100
AcDbSymbolTableRecord
100
AcDbLinetypeTableRecord
2
BYLAYER
70
0
0
ENDTAB
0
TABLE
2
LAYER
5
2
100
AcDbSymbolTable
70
2
0
LAYER
5
50
100
AcDbSymbolTableRecord
100
AcDbLayerTableRecord
2
0
70
0
6
CONTINUOUS
0
ENDTAB
0
TABLE
2
STYLE
5
3
100
AcDbSymbolTable
70
1
0
STYLE
5
11
100
AcDbSymbolTableRecord
100
AcDbTextStyleTableRecord
2
STANDARD
70
0
0
ENDTAB
0
TABLE
2
VIEW
5
6
100
AcDbSymbolTable
70
0
0
ENDTAB
0
TABLE
2
UCS
5
7
100
AcDbSymbolTable
70
0
0
ENDTAB
0
TABLE
2
APPID
5
9
100
AcDbSymbolTable
70
2
0
APPID
5
12
100
AcDbSymbolTableRecord
100
AcDbRegAppTableRecord
2
ACAD
70
0
0
ENDTAB
0
TABLE
2
DIMSTYLE
5
A
100
AcDbSymbolTable
70
1
0
ENDTAB
0
TABLE
2
BLOCK_RECORD
5
1
100
AcDbSymbolTable
70
1
0
BLOCK_RECORD
5
1F
100
AcDbSymbolTableRecord
100
AcDbBlockTableRecord
2
*MODEL_SPACE
0
BLOCK_RECORD
5
1B
100
AcDbSymbolTableRecord
100
AcDbBlockTableRecord
2
*PAPER_SPACE
0
ENDTAB
0
ENDSEC
0
SECTION
2
BLOCKS
0
BLOCK
5
20
100
AcDbEntity
100
AcDbBlockBegin
2
*MODEL_SPACE
0
ENDBLK
5
21
100
AcDbEntity
100
AcDbBlockEnd
0
BLOCK
5
1C
100
AcDbEntity
100
AcDbBlockBegin
2
*PAPER_SPACE
0
ENDBLK
5
1D
100
AcDbEntity
100
AcDbBlockEnd
0
ENDSEC
0
SECTION
2
ENTITIES
0
ARC
5
100
100
AcDbEntity
8
0
100
AcDbCircle
10
-3.5527136788005009e-15
20
7.1054273576010019e-15
30
0
40
15.875000000000005
210
0
220
0
230
1
100
AcDbArc
50
280.75875798222415
51
349.24124201777585
0
ARC
5
101
100
AcDbEntity
8
0
100
AcDbCircle
10
2.8449149131453986
20
-14.972109375000002
30
0
40
0.63499999999999845
210
0
220
0
230
1
100
AcDbArc
50
185.37937899111182
51
280.75875798222444
0
ARC
5
102
100
AcDbEntity
8
0
100
AcDbCircle
10
0
20
-15.24
30
0
40
2.2225000000000001
210
0
220
-0
230
1
100
AcDbArc
50
5.3793789911120262
51
174.62062100888798
0
ARC
5
103
100
AcDbEntity
8
0
100
AcDbCircle
10
-2.8449149131453986
20
-14.972109375000002
30
0
40
0.63499999999999912
210
0
220
0
230
1
100
AcDbArc
50
259.24124201777556
51
354.62062100888807
0
LINE
5
104
100
AcDbEntity
8
0
100
AcDbLine
10
1.5874999999999999
20
-3.0671306570155954
30
0
11
2.54
21
-3.0671306570155954
31
0
0
ARC
5
105
100
AcDbEntity
8
0
100
AcDbCircle
10
2.54
20
-3.7021306570155947
30
0
40
0.63500000000000001
210
0
220
0
230
1
100
AcDbArc
50
0
51
90
0
LINE
5
106
100
AcDbEntity
8
0
100
AcDbLine
10
-3.1749999999999998
20
-15.554259866673201
30
0
11
-3.1749999999999998
21
-3.7021306570155943
31
0
0
ARC
5
107
100
AcDbEntity
8
0
100
AcDbCircle
10
-1.5874999999999997
20
-2.7496306570155955
30
0
40
0.3175
210
0
220
0
230
1
100
AcDbArc
50
-90.000000000000057
51
0
0
LINE
5
108
100
AcDbEntity
8
0
100
AcDbLine
10
-2.54
20
-3.0671306570155954
30
0
11
-1.5874999999999999
21
-3.0671306570155954
31
0
0
ARC
5
109
100
AcDbEntity
8
0
100
AcDbCircle
10
-2.54
20
-3.7021306570155947
30
0
40
0.63499999999999945
210
0
220
-0
230
1
100
AcDbArc
50
90
51
180
0
LINE
5
110
100
AcDbEntity
8
0
100
AcDbLine
10
-1.27
20
-2.7496306570155955
30
0
11
-1.27
21
-1.905
31
0
0
ARC
5
111
100
AcDbEntity
8
0
100
AcDbCircle
10
-0.63500000000000001
20
-1.905
30
0
40
0.63500000000000001
210
0
220
-0
230
1
100
AcDbArc
50
89.999999999999986
51
180
0
LINE
5
112
100
AcDbEntity
8
0
100
AcDbLine
10
-0.63500000000000001
20
-1.27
30
0
11
0.63500000000000001
21
-1.27
31
0
0
ARC
5
113
100
AcDbEntity
8
0
100
AcDbCircle
10
0.63500000000000001
20
-1.905
30
0
40
0.63500000000000001
210
0
220
0
230
1
100
AcDbArc
50
0
51
90.000000000000014
0
ARC
5
114
100
AcDbEntity
8
0
100
AcDbCircle
10
6.9388939039072303e-16
20
0
30
0
40
14.605
210
0
220
-0
230
1
100
AcDbArc
50
10.71523102097149
51
256.16477638596194
0
ARC
5
115
100
AcDbEntity
8
0
100
AcDbCircle
10
6.9388939039072303e-16
20
0
30
0
40
9.5250000000000021
210
-0
220
0
230
1
100
AcDbArc
50
-68.489811733112518
51
248.4898117331125
0
LINE
5
116
100
AcDbEntity
8
0
100
AcDbLine
10
-3.4925000000000002
20
-8.8616064429650692
30
0
11
-3.4925000000000002
21
-5.8651626416067995
31
0
0
ARC
5
117
100
AcDbEntity
8
0
100
AcDbCircle
10
6.9388939039072303e-16
20
0
30
0
40
6.8262500000000017
210
-0
220
0
230
1
100
AcDbArc
50
-59.227675232054814
51
239.22767523205479
0
ARC
5
118
100
AcDbEntity
8
0
100
AcDbCircle
10
1.1102230246251565e-15
20
-2.2204460492503131e-16
30
0
40
5.7150000000000016
210
0
220
0
230
1
100
AcDbArc
50
-52.330113035670365
51
232.33011303567042
0
LINE
5
119
100
AcDbEntity
8
0
100
AcDbLine
10
-3.4925000000000002
20
-2.7496306570155999
30
0
11
-3.4925000000000002
21
-4.52367867448607
31
0
0
ARC
5
120
100
AcDbEntity
8
0
100
AcDbCircle
10
1.1102230246251565e-15
20
-2.2204460492503131e-16
30
0
40
4.4450000000000021
210
0
220
0
230
1
100
AcDbArc
50
-38.213210701738184
51
218.21321070173826
0
ARC
5
121
100
AcDbEntity
8
0
100
AcDbCircle
10
8.8817841970012523e-16
20
5.5511151231257827e-17
30
0
40
3.1749999999999994
210
0
220
0
230
1
100
AcDbArc
50
-60.000000000000028
51
240.00000000000003
0
LINE
5
122
100
AcDbEntity
8
0
100
AcDbLine
10
-1.5874999999999999
20
-1.0530283709378421
30
0
11
-1.5874999999999999
21
-2.7496306570155955
31
0
0
ARC
5
123
100
AcDbEntity
8
0
100
AcDbCircle
10
1.7763568394002505e-15
20
7.7715611723760968e-16
30
0
40
1.9050000000000016
210
0
220
0
230
1
100
AcDbArc
50
180
51
213.55730976192078
0
ARC
5
124
100
AcDbEntity
8
0
100
AcDbCircle
10
4.4408920985006262e-16
20
3.3306690738754701e-16
30
0
40
1.905
210
0
220
0
230
1
100
AcDbArc
50
90.000000000000014
51
180
0
LINE
5
125
100
AcDbEntity
8
0
100
AcDbLine
10
-0.050799999999999304
20
1.2037062152420222e-33
30
0
11
-1.905
21
1.2037062152420222e-33
31
0
0
LINE
5
126
100
AcDbEntity
8
0
100
AcDbLine
10
0.050800000000000706
20
1.2037062152420222e-33
30
0
11
1.905
21
-1.2037062152420222e-33
31
0
0
LINE
5
127
100
AcDbEntity
8
0
100
AcDbLine
10
-3.8142067288869052e-16
20
0.050800000000000005
30
0
11
-3.5236570605778894e-16
21
1.905
31
0
0
LINE
5
128
100
AcDbEntity
8
0
100
AcDbLine
10
-1.2058804096065642e-17
20
-0.95250000000000001
30
0
11
-3.9424483352713801e-16
21
-0.050799999999999956
31
0
0
ARC
5
129
100
AcDbEntity
8
0
100
AcDbCircle
10
6.2172489379008774e-15
20
-1.4988010832439613e-15
30
0
40
1.9049999999999947
210
0
220
0
230
1
100
AcDbArc
50
-33.557309761920877
51
0
0
ARC
5
130
100
AcDbEntity
8
0
100
AcDbCircle
10
8.8817841970012523e-16
20
2.2204460492503131e-16
30
0
40
1.905
210
0
220
0
230
1
100
AcDbArc
50
0
51
90.000000000000057
0
LINE
5
131
100
AcDbEntity
8
0
100
AcDbLine
10
1.5874999999999999
20
-2.7496306570155955
30
0
11
3.4925000000000002
21
-2.7496306570155902
31
0
0
LINE
5
132
100
AcDbEntity
8
0
100
AcDbLine
10
3.4925000000000002
20
-4.5236786744860602
30
0
11
3.4925000000000002
21
-5.8651626416067995
31
0
0
LINE
5
133
100
AcDbEntity
8
0
100
AcDbLine
10
3.4925000000000002
20
-14.181271760670819
30
0
11
3.4925000000000002
21
-8.8616064429650603
31
0
0
ARC
5
134
100
AcDbEntity
8
0
100
AcDbCircle
10
6.9388939039072303e-16
20
0
30
0
40
14.605
210
-0
220
0
230
1
100
AcDbArc
50
283.835223614038
51
349.28476897902846
0
LINE
5
135
100
AcDbEntity
8
0
100
AcDbLine
10
1.27
20
-1.905
30
0
11
1.27
21
-2.7496306570155955
31
0
0
ARC
5
136
100
AcDbEntity
8
0
100
AcDbCircle
10
1.5874999999999997
20
-2.7496306570155955
30
0
40
0.31749999999999973
210
0
220
0
230
1
100
AcDbArc
50
180
51
270.00000000000006
0
LINE
5
137
100
AcDbEntity
8
0
100
AcDbLine
10
3.1749999999999998
20
-3.7021306570155947
30
0
11
3.1749999999999998
21
-15.554259866673201
31
0
0
CIRCLE
5
138
100
AcDbEntity
8
0
100
AcDbCircle
10
7.4240027739420995
20
-4.2862500000000008
30
0
40
0.48895
210
-0
220
0
230
1
0
CIRCLE
5
139
100
AcDbEntity
8
0
100
AcDbCircle
10
-7.4240027739420995
20
-4.2862500000000008
30
0
40
0.48895
210
-0
220
0
230
1
0
CIRCLE
5
140
100
AcDbEntity
8
0
100
AcDbCircle
10
-1.3019700749636521e-17
20
8.5725000000000016
30
0
40
0.48895
210
-0
220
0
230
1
0
ARC
5
141
100
AcDbEntity
8
0
100
AcDbCircle
10
14.972109375000002
20
2.8449149131453986
30
0
40
0.63499999999999845
210
0
220
0
230
1
100
AcDbArc
50
-84.620621008888165
51
10.758757982224422
0
ARC
5
142
100
AcDbEntity
8
0
100
AcDbCircle
10
15.24
20
0
30
0
40
2.2225000000000001
210
0
220
0
230
1
100
AcDbArc
50
95.379378991112048
51
264.62062100888795
0
ARC
5
143
100
AcDbEntity
8
0
100
AcDbCircle
10
14.972109375000002
20
-2.8449149131453995
30
0
40
0.6349999999999989
210
0
220
0
230
1
100
AcDbArc
50
-10.75875798222433
51
84.62062100888798
0
ARC
5
144
100
AcDbEntity
8
0
100
AcDbCircle
10
15.24
20
2.2204460492503131e-16
30
0
40
2.8574999999999995
210
0
220
0
230
1
100
AcDbArc
50
108.1401599896449
51
251.8598400103551
0
ARC
5
145
100
AcDbEntity
8
0
100
AcDbCircle
10
1.7763568394002505e-15
20
0
30
0
40
15.875000000000002
210
0
220
0
230
1
100
AcDbArc
50
281.53695903281556
51
349.24124201777585
0
ARC
5
146
100
AcDbEntity
8
0
100
AcDbCircle
10
-1.7763568394002505e-15
20
-8.8817841970012523e-16
30
0
40
15.875000000000007
210
0
220
-0
230
1
100
AcDbArc
50
10.758757982224184
51
258.4630409671845
0
ARC
5
147
100
AcDbEntity
8
0
100
AcDbCircle
10
-1.7129853091546465e-11
20
-8.5936591176505317e-11
30
0
40
15.874999999912378
210
0
220
0
230
1
100
AcDbArc
50
258.46304096718308
51
259.24124201777892
0
CIRCLE
5
148
100
AcDbEntity
8
0
100
AcDbCircle
10
-2.70764
20
0
30
-2.2204460492503131e-16
40
0.16764000000000001
210
-0
220
0
230
1
0
CIRCLE
5
149
100
AcDbEntity
8
0
100
AcDbCircle
10
-3.9776400000000005
20
0
30
-2.2204460492503131e-16
40
0.16764000000000001
210
-0
220
0
230
1
0
CIRCLE
5
150
100
AcDbEntity
8
0
100
AcDbCircle
10
-5.1676400000000005
20
0
30
-2.2204460492503131e-16
40
0.16764000000000001
210
-0
220
0
230
1
0
CIRCLE
5
151
100
AcDbEntity
8
0
100
AcDbCircle
10
-6.4176400000000005
20
-7.8590827205446398e-16
30
-2.2204460492503131e-16
40
0.16764000000000001
210
-0
220
0
230
1
0
CIRCLE
5
152
100
AcDbEntity
8
0
100
AcDbCircle
10
-7.6676400000000013
20
-9.3898406628226203e-16
30
-2.2204460492503131e-16
40
0.16764000000000001
210
-0
220
0
230
1
0
CIRCLE
5
153
100
AcDbEntity
8
0
100
AcDbCircle
10
-10.16764
20
-1.2451356547378559e-15
30
-2.2204460492503131e-16
40
0.16764000000000001
210
-0
220
0
230
1
0
CIRCLE
5
154
100
AcDbEntity
8
0
100
AcDbCircle
10
-15.16764
20
0
30
-2.2204460492503131e-16
40
0.16764000000000001
210
-0
220
0
230
1
0
CIRCLE
5
155
100
AcDbEntity
8
0
100
AcDbCircle
10
0.47625000000000001
20
2.5804311093793455
30
-2.2204460492503131e-16
40
0.16764000000000001
210
-0
220
0
230
1
0
CIRCLE
5
156
100
AcDbEntity
8
0
100
AcDbCircle
10
0.79374999999999996
20
3.8119812899315555
30
-2.2204460492503131e-16
40
0.16764000000000001
210
-0
220
0
230
1
0
CIRCLE
5
157
100
AcDbEntity
8
0
100
AcDbCircle
10
1.27
20
4.8962100798444297
30
-2.2204460492503131e-16
40
0.16764000000000001
210
-0
220
0
230
1
0
CIRCLE
5
158
100
AcDbEntity
8
0
100
AcDbCircle
10
1.7462500000000001
20
6.0452989727543809
30
-2.2204460492503131e-16
40
0.16764000000000001
210
-0
220
0
230
1
0
CIRCLE
5
159
100
AcDbEntity
8
0
100
AcDbCircle
10
2.2225000000000001
20
7.0947155012486993
30
-2.2204460492503131e-16
40
0.16764000000000001
210
-0
220
0
230
1
0
CIRCLE
5
160
100
AcDbEntity
8
0
100
AcDbCircle
10
-2.2225000000000001
20
7.0947155012486993
30
-2.2204460492503131e-16
40
0.16764000000000001
210
-0
220
0
230
1
0
CIRCLE
5
161
100
AcDbEntity
8
0
100
AcDbCircle
10
-1.7462500000000001
20
6.0452989727543809
30
-2.2204460492503131e-16
40
0.16764000000000001
210
-0
220
0
230
1
0
CIRCLE
5
162
100
AcDbEntity
8
0
100
AcDbCircle
10
-1.27
20
4.8962100798444297
30
-2.2204460492503131e-16
40
0.16764000000000001
210
-0
220
0
230
1
0
CIRCLE
5
163
100
AcDbEntity
8
0
100
AcDbCircle
10
-0.79374999999999996
20
3.8119812899315555
30
-2.2204460492503131e-16
40
0.16764000000000001
210
-0
220
0
230
1
0
CIRCLE
5
164
100
AcDbEntity
8
0
100
AcDbCircle
10
-0.47625000000000001
20
2.5804311093793455
30
-2.2204460492503131e-16
40
0.16764000000000001
210
-0
220
0
230
1
0
CIRCLE
5
165
100
AcDbEntity
8
0
100
AcDbCircle
10
0
20
10.099799540982641
30
-2.2204460492503131e-16
40
0.16764000000000001
210
-0
220
0
230
1
0
CIRCLE
5
166
100
AcDbEntity
8
0
100
AcDbCircle
10
0
20
15.09979954098265
30
-2.2204460492503131e-16
40
0.16764000000000001
210
-0
220
0
230
1
0
ENDSEC
0
SECTION
2
OBJECTS
0
DICTIONARY
5
C
100
AcDbDictionary
3
ACAD_GROUP
350
D
3
ACAD_MLINESTYLE
350
17
0
DICTIONARY
5
D
100
AcDbDictionary
0
DICTIONARY
5
1A
330
C
100
AcDbDictionary
0
DICTIONARY
5
17
100
AcDbDictionary
0
ENDSEC
0
EOF
